<?xml version="1.0" encoding="utf-8"?>
<!-- Generator: Adobe Illustrator 19.0.0, SVG Export Plug-In . SVG Version: 6.00 Build 0)  -->
<svg version="1.1" xmlns="http://www.w3.org/2000/svg" xmlns:xlink="http://www.w3.org/1999/xlink" x="0px" y="0px"
	 viewBox="0 0 64 64" style="enable-background:new 0 0 64 64;" xml:space="preserve">
<style type="text/css">

	.st0{display:none;}
	.st1{display:inline;fill:#FFFFFF;}
	.st2{display:inline;}
	.st3{fill:none;stroke:#4C5159;stroke-width:2;stroke-miterlimit:10;}
	.st4{display:inline;fill:none;stroke:#4C5159;stroke-width:2;stroke-miterlimit:10;}
	.st5{display:inline;fill:none;stroke:#4C5159;stroke-width:2;stroke-miterlimit:10;stroke-dasharray:2;}
	.st6{fill:none;stroke:#4C5159;stroke-width:2;stroke-miterlimit:10;stroke-dasharray:1.9857,1.9857;}
	.st7{display:inline;fill:none;stroke:#4C5159;stroke-width:2;stroke-miterlimit:10;stroke-dasharray:1.9857,1.9857;}
	.st8{fill:white;}
	.st9{font-family:'Montserrat-Bold';}
	.st10{font-size:7px;}
	.st11{display:inline;fill:#74E2F0;}
	.st12{display:inline;fill:#FBDA73;}
	.st13{display:inline;fill:#F08E70;}
</style>
<g id="bg" class="st0">
	<rect id="XMLID_119_" x="-218" y="-268.2" class="st1" width="500" height="600.3"/>
</g>
<g id="guideline" class="st0">
</g>
<g id="icons">
	<g id="XMLID_66_" class="st0">
		<g id="XMLID_25_" class="st2">
			<g id="XMLID_16_">
				<g id="XMLID_7_">
					<path id="XMLID_8_" class="st3" d="M20.2,11l9.4,9.4c0.9,0.9,0.9,2.4,0,3.3l-5.8,5.8c-0.9,0.9-2.4,0.9-3.3,0L11,20.2"/>
					<line id="XMLID_9_" class="st3" x1="14.8" y1="17.3" x2="21.4" y2="23.9"/>
					<line id="XMLID_13_" class="st3" x1="17.6" y1="14.5" x2="24.2" y2="21.1"/>
				</g>
				<line id="XMLID_29_" class="st3" x1="28.4" y1="31.2" x2="26.6" y2="29.4"/>
				<path id="XMLID_14_" class="st3" d="M38.2,35.4l14.7,14.7c0.1,0.1,0.1,0.2,0,0.3l-2.5,2.5c-0.1,0.1-0.2,0.1-0.3,0L34.8,37.7"/>
				<line id="XMLID_21_" class="st3" x1="29.4" y1="26.6" x2="31.1" y2="28.2"/>
			</g>
			<g id="XMLID_4_">
				<path id="XMLID_15_" class="st3" d="M27.9,34.7L51,11.6c0,0,0.1,0,0.1,0.1l-0.8,5.1c-0.4,2.7-1.7,5.2-3.6,7.1L35.2,35.5
					l-2.2-0.6l-2.4,2.4"/>
				<path id="XMLID_17_" class="st3" d="M15.2,52.4l-2.3-2.3c-0.1-0.1-0.1-0.3,0-0.4l13.9-13.9l2.7,2.7L15.6,52.4
					C15.5,52.5,15.3,52.5,15.2,52.4z"/>
			</g>
		</g>
		<g id="XMLID_52_" class="st2">
			<line id="XMLID_58_" class="st3" x1="11" y1="33.2" x2="13" y2="33.2"/>
			<line id="XMLID_57_" class="st3" x1="14.8" y1="33.2" x2="16.8" y2="33.2"/>
			<line id="XMLID_53_" class="st3" x1="18.6" y1="33.2" x2="20.7" y2="33.2"/>
		</g>
		<g id="XMLID_59_" class="st2">
			<line id="XMLID_65_" class="st3" x1="42.5" y1="33.2" x2="44.6" y2="33.2"/>
			<line id="XMLID_64_" class="st3" x1="46.4" y1="33.2" x2="48.4" y2="33.2"/>
			<line id="XMLID_62_" class="st3" x1="50.2" y1="33.2" x2="52.2" y2="33.2"/>
		</g>
	</g>
	<g id="XMLID_75_" class="st0">
		<g id="XMLID_74_" class="st2">
			<g id="XMLID_558_">
				<path id="XMLID_562_" class="st3" d="M16.6,54.8v-8.1c0-0.8,0.5-1.4,1.2-1.7l9.9-3.4v-5.5"/>
				<path id="XMLID_561_" class="st3" d="M47.5,54.8v-8.1c0-0.8-0.5-1.4-1.2-1.7l-9.9-3.4v-5.5"/>
				<path id="XMLID_72_" class="st3" d="M24.6,24.7l0.7,7.8c0.1,1.2,0.8,2.3,1.9,2.8l3.6,2.4h2.4l3.7-2.4c1.1-0.6,1.8-1.6,1.9-2.8
					l0.7-7.8"/>
				<polyline id="XMLID_70_" class="st3" points="36.5,41.7 31,46.6 31,54.8 				"/>
				<line id="XMLID_69_" class="st3" x1="27.6" y1="41.7" x2="32" y2="45.5"/>
			</g>
			<line id="XMLID_556_" class="st3" x1="12.9" y1="54.8" x2="51.1" y2="54.8"/>
			<line id="XMLID_73_" class="st3" x1="32.9" y1="49" x2="34.7" y2="49"/>
			<line id="XMLID_71_" class="st3" x1="32.9" y1="52.9" x2="34.7" y2="52.9"/>
		</g>
		<path id="XMLID_84_" class="st4" d="M41.8,15.1c0-2-1.7-3.7-3.7-3.7c-0.4,0-0.8,0.1-1.1,0.2c-1-1.5-2.6-2.5-4.5-2.5
			c-1.9,0-3.5,1-4.5,2.5c-0.4-0.1-0.7-0.2-1.1-0.2c-2,0-3.7,1.7-3.7,3.7c0,2.6,1.5,3.6,1.5,3.6v3.8h14.9v-3.8
			C39.5,18.7,41.8,17.7,41.8,15.1z"/>
		<line id="XMLID_76_" class="st4" x1="25" y1="18.5" x2="31" y2="18.5"/>
	</g>
	<g id="XMLID_98_" class="st0">
		<g id="XMLID_77_" class="st2">
			<path id="XMLID_86_" class="st3" d="M10.2,51.5v-5.4c0-0.8,0.5-1.5,1.2-1.7l10-3.4v-3.9"/>
			<path id="XMLID_85_" class="st3" d="M41.5,51.5v-5.4c0-0.8-0.5-1.5-1.2-1.7l-10-3.4v-3.9"/>
			<path id="XMLID_83_" class="st3" d="M33.4,23.5l-0.1,2.5c0.8,0.1,1.4,0.9,1.2,1.7L34.4,28c-0.2,0.7-0.7,1.3-1.4,1.5l-0.3,4
				c-0.1,1.2-0.8,2.3-1.9,2.9L27,38.8h-2.4l-3.7-2.4c-1.1-0.6-1.8-1.7-1.9-2.9l-0.3-4c-0.8-0.1-1.5-0.7-1.7-1.5L17,27.7
				c-0.2-0.9,0.4-1.7,1.3-1.7h0.1l-0.1-2.5h8.8c2.2,0,4-1.8,4-4"/>
			<polyline id="XMLID_82_" class="st3" points="21.4,41 25.1,44.8 26.5,44.8 30.2,41 			"/>
			<path id="XMLID_80_" class="st3" d="M36,25.4v-3.8c0-5.6-4.5-10.1-10.1-10.1h0c-5.6,0-10.1,4.5-10.1,10.1v3.8"/>
			<line id="XMLID_79_" class="st3" x1="15.7" y1="30.3" x2="15.7" y2="42.8"/>
			<line id="XMLID_78_" class="st3" x1="36" y1="30.7" x2="36" y2="43.2"/>
		</g>
		<line id="XMLID_88_" class="st4" x1="8" y1="52.5" x2="56" y2="52.5"/>
		<path id="XMLID_89_" class="st4" d="M44.3,50.9c0-2.3,1.9-4.2,4.2-4.2c2.3,0,4.2,1.9,4.2,4.2"/>
		<line id="XMLID_92_" class="st4" x1="48.6" y1="43.7" x2="48.6" y2="46.3"/>
		<line id="XMLID_94_" class="st4" x1="15.8" y1="49.5" x2="20.7" y2="49.5"/>
		<line id="XMLID_97_" class="st4" x1="24.8" y1="47.4" x2="26.6" y2="47.4"/>
		<line id="XMLID_87_" class="st4" x1="24.8" y1="50.4" x2="26.6" y2="50.4"/>
		<line id="XMLID_101_" class="st4" x1="48.6" y1="38.2" x2="48.6" y2="42.4"/>
		<line id="XMLID_102_" class="st4" x1="43" y1="40.5" x2="46.1" y2="43.5"/>
		<line id="XMLID_100_" class="st4" x1="54.1" y1="40.5" x2="51.1" y2="43.5"/>
	</g>
	<g id="XMLID_154_" class="st0">
		<line id="XMLID_105_" class="st4" x1="9.7" y1="54.8" x2="54.3" y2="54.8"/>
		<polyline id="XMLID_104_" class="st4" points="16.9,43.8 16.9,24.1 46.9,24.1 46.9,43.8 		"/>
		<polyline id="XMLID_106_" class="st4" points="26.9,54.8 26.9,46.4 36.8,46.4 36.8,54.8 		"/>
		<polyline id="XMLID_103_" class="st4" points="16.9,23.8 14.9,20.8 14.9,17.8 48.9,17.8 48.9,20.5 46.9,23.8 		"/>
		<line id="XMLID_107_" class="st4" x1="14.9" y1="20.8" x2="30.4" y2="20.8"/>
		<line id="XMLID_109_" class="st4" x1="31.9" y1="46.8" x2="31.9" y2="54.8"/>
		<g id="XMLID_115_" class="st2">
			<line id="XMLID_110_" class="st3" x1="20.5" y1="30" x2="22.6" y2="30"/>
			<line id="XMLID_108_" class="st3" x1="24.5" y1="30" x2="26.6" y2="30"/>
			<line id="XMLID_111_" class="st3" x1="28.5" y1="30" x2="30.6" y2="30"/>
			<line id="XMLID_112_" class="st3" x1="32.5" y1="30" x2="34.6" y2="30"/>
			<line id="XMLID_113_" class="st3" x1="36.5" y1="30" x2="38.6" y2="30"/>
			<line id="XMLID_114_" class="st3" x1="40.5" y1="30" x2="42.6" y2="30"/>
		</g>
		<g id="XMLID_116_" class="st2">
			<line id="XMLID_123_" class="st3" x1="20.5" y1="34" x2="22.6" y2="34"/>
			<line id="XMLID_122_" class="st3" x1="24.5" y1="34" x2="26.6" y2="34"/>
			<line id="XMLID_121_" class="st3" x1="28.5" y1="34" x2="30.6" y2="34"/>
			<line id="XMLID_120_" class="st3" x1="32.5" y1="34" x2="34.6" y2="34"/>
			<line id="XMLID_118_" class="st3" x1="36.5" y1="34" x2="38.6" y2="34"/>
			<line id="XMLID_117_" class="st3" x1="40.5" y1="34" x2="42.6" y2="34"/>
		</g>
		<g id="XMLID_124_" class="st2">
			<line id="XMLID_130_" class="st3" x1="20.5" y1="38" x2="22.6" y2="38"/>
			<line id="XMLID_129_" class="st3" x1="24.5" y1="38" x2="26.6" y2="38"/>
			<line id="XMLID_128_" class="st3" x1="28.5" y1="38" x2="30.6" y2="38"/>
			<line id="XMLID_127_" class="st3" x1="32.5" y1="38" x2="34.6" y2="38"/>
			<line id="XMLID_126_" class="st3" x1="36.5" y1="38" x2="38.6" y2="38"/>
			<line id="XMLID_125_" class="st3" x1="40.5" y1="38" x2="42.6" y2="38"/>
		</g>
		<g id="XMLID_131_" class="st2">
			<line id="XMLID_137_" class="st3" x1="20.5" y1="42" x2="22.6" y2="42"/>
			<line id="XMLID_136_" class="st3" x1="24.5" y1="42" x2="26.6" y2="42"/>
			<line id="XMLID_135_" class="st3" x1="28.5" y1="42" x2="30.6" y2="42"/>
			<line id="XMLID_134_" class="st3" x1="32.5" y1="42" x2="34.6" y2="42"/>
			<line id="XMLID_133_" class="st3" x1="36.5" y1="42" x2="38.6" y2="42"/>
			<line id="XMLID_132_" class="st3" x1="40.5" y1="42" x2="42.6" y2="42"/>
		</g>
		<g id="XMLID_138_" class="st2">
			<line id="XMLID_144_" class="st3" x1="20.5" y1="46" x2="22.6" y2="46"/>
			<line id="XMLID_139_" class="st3" x1="40.5" y1="46" x2="42.6" y2="46"/>
		</g>
		<g id="XMLID_140_" class="st2">
			<line id="XMLID_142_" class="st3" x1="20.5" y1="50" x2="22.6" y2="50"/>
			<line id="XMLID_141_" class="st3" x1="40.5" y1="50" x2="42.6" y2="50"/>
		</g>
		<g id="XMLID_145_" class="st2">
			<circle id="XMLID_143_" class="st3" cx="16.9" cy="48.1" r="2.5"/>
			<line id="XMLID_146_" class="st3" x1="16.9" y1="50" x2="16.9" y2="54.4"/>
		</g>
		<g id="XMLID_147_" class="st2">
			<circle id="XMLID_150_" class="st3" cx="46.9" cy="48.1" r="2.5"/>
			<line id="XMLID_148_" class="st3" x1="46.9" y1="50" x2="46.9" y2="54.4"/>
		</g>
		<rect id="XMLID_151_" x="18.1" y="9.2" class="st4" width="27.5" height="5.5"/>
		<line id="XMLID_153_" class="st4" x1="22.6" y1="14.7" x2="22.6" y2="17"/>
		<line id="XMLID_152_" class="st4" x1="40.6" y1="14.7" x2="40.6" y2="17"/>
	</g>
	<g id="XMLID_195_" class="st0">
		<g id="XMLID_187_" class="st2">
			<line id="XMLID_190_" class="st3" x1="9.5" y1="15.6" x2="11.8" y2="15.6"/>
			<line id="XMLID_189_" class="st3" x1="13.9" y1="15.6" x2="16.2" y2="15.6"/>
			<line id="XMLID_188_" class="st3" x1="18.3" y1="15.6" x2="20.6" y2="15.6"/>
		</g>
		<g id="XMLID_191_" class="st2">
			<line id="XMLID_194_" class="st3" x1="43.4" y1="15.6" x2="45.7" y2="15.6"/>
			<line id="XMLID_193_" class="st3" x1="47.8" y1="15.6" x2="50.1" y2="15.6"/>
			<line id="XMLID_192_" class="st3" x1="52.2" y1="15.6" x2="54.5" y2="15.6"/>
		</g>
		<g id="XMLID_181_" class="st2">
			<path id="XMLID_90_" class="st3" d="M48.6,47.1H16.1c-0.6,0-1.1-0.5-1.1-1.1V36c0-0.6,0.5-1.1,1.1-1.1l13.1,2.1h6.3L48.6,35
				c0.6,0,1.1,0.5,1.1,1.1v10C49.7,46.7,49.2,47.1,48.6,47.1z"/>
			<path id="XMLID_93_" class="st3" d="M50.9,47.1H14.3c-0.6,0-1,0.4-1,1v2c0,0.6,0.4,1,1,1h36.5c0.6,0,1-0.4,1-1v-2
				C51.9,47.6,51.4,47.1,50.9,47.1z"/>
			<path id="XMLID_158_" class="st3" d="M22.7,51.9v2.8c0,0.1-0.1,0.2-0.2,0.2h-6c-0.1,0-0.2-0.1-0.2-0.2v-2.8"/>
			<path id="XMLID_156_" class="st3" d="M48.8,51.9v2.8c0,0.1-0.1,0.2-0.2,0.2h-6c-0.1,0-0.2-0.1-0.2-0.2v-2.8"/>
			<g id="XMLID_177_">
				<line id="XMLID_162_" class="st3" x1="26.7" y1="40.1" x2="28.6" y2="40.1"/>
				<line id="XMLID_170_" class="st3" x1="29.9" y1="40.1" x2="31.7" y2="40.1"/>
				<line id="XMLID_175_" class="st3" x1="33" y1="40.1" x2="34.9" y2="40.1"/>
				<line id="XMLID_176_" class="st3" x1="36.2" y1="40.1" x2="38" y2="40.1"/>
			</g>
			<g id="XMLID_161_">
				<line id="XMLID_180_" class="st3" x1="26.7" y1="43.3" x2="28.6" y2="43.3"/>
				<line id="XMLID_179_" class="st3" x1="29.9" y1="43.3" x2="31.7" y2="43.3"/>
				<line id="XMLID_178_" class="st3" x1="33" y1="43.3" x2="34.9" y2="43.3"/>
				<line id="XMLID_163_" class="st3" x1="36.2" y1="43.3" x2="38" y2="43.3"/>
			</g>
			<circle id="XMLID_165_" class="st3" cx="50.9" cy="33.7" r="2.2"/>
			<circle id="XMLID_164_" class="st3" cx="13.3" cy="33.7" r="2.2"/>
			<path id="XMLID_169_" class="st3" d="M16.2,34.1l3.9-9.1c0.2-0.4,0.6-0.6,1-0.6h22.8c0.4,0,0.8,0.3,1,0.6l3.9,9.1H16.2z"/>
			<polyline id="XMLID_160_" class="st3" points="40.8,44 40.8,39.6 47.1,39.6 47.1,44 			"/>
			<polyline id="XMLID_166_" class="st3" points="17.7,44 17.7,39.6 24,39.6 24,44 			"/>
		</g>
		<g id="XMLID_186_" class="st2">
			<g id="XMLID_184_">
				<line id="XMLID_183_" class="st3" x1="29.9" y1="11.6" x2="29.9" y2="18.8"/>
				<path id="XMLID_182_" class="st3" d="M33.1,14.9h-3.3v-3.3h3.3c0.7,0,1.4,0.6,1.4,1.4v0.6C34.5,14.3,33.9,14.9,33.1,14.9z"/>
			</g>
			<path id="XMLID_185_" class="st3" d="M38.7,21.3h-13c-0.1,0-0.2-0.1-0.2-0.2V9.3c0-0.1,0.1-0.2,0.2-0.2h13c0.1,0,0.2,0.1,0.2,0.2
				V21C38.9,21.2,38.8,21.3,38.7,21.3z"/>
		</g>
	</g>
	<g id="XMLID_210_" class="st0">
		<g id="XMLID_447_" class="st2">
			<line id="XMLID_453_" class="st3" x1="22.3" y1="41.8" x2="42.1" y2="41.8"/>
			<path id="XMLID_404_" class="st3" d="M22.1,52.1h-3.8c-0.1,0-0.2-0.1-0.2-0.2V36.8c0-0.1,0.1-0.2,0.2-0.2h3.8
				c0.1,0,0.2,0.1,0.2,0.2v15.2C22.3,52,22.2,52.1,22.1,52.1z"/>
			<path id="XMLID_411_" class="st3" d="M17.5,50.1h-3.1c-0.1,0-0.3-0.1-0.3-0.3V38.9c0-0.1,0.1-0.3,0.3-0.3h3.1"/>
			<path id="XMLID_424_" class="st3" d="M13.9,47.6h-3.1c-0.1,0-0.2-0.1-0.2-0.2v-6.1c0-0.1,0.1-0.2,0.2-0.2h3.1"/>
			<path id="XMLID_450_" class="st3" d="M41.9,52.1h3.8c0.1,0,0.2-0.1,0.2-0.2V36.8c0-0.1-0.1-0.2-0.2-0.2h-3.8
				c-0.1,0-0.2,0.1-0.2,0.2v15.2C41.7,52,41.8,52.1,41.9,52.1z"/>
			<path id="XMLID_449_" class="st3" d="M46.5,50.1h3.1c0.1,0,0.3-0.1,0.3-0.3V38.9c0-0.1-0.1-0.3-0.3-0.3h-3.1"/>
			<path id="XMLID_448_" class="st3" d="M50.1,47.6h3.1c0.1,0,0.2-0.1,0.2-0.2v-6.1c0-0.1-0.1-0.2-0.2-0.2h-3.1"/>
			<line id="XMLID_407_" class="st3" x1="22.3" y1="46.6" x2="42.1" y2="46.6"/>
		</g>
		<path id="XMLID_355_" class="st4" d="M46.2,30.7h-23c-0.1,0-0.2-0.1-0.2-0.2v-4.7c0-0.1,0.1-0.2,0.2-0.2h23c0.1,0,0.2,0.1,0.2,0.2
			v4.7C46.4,30.6,46.3,30.7,46.2,30.7z"/>
		<path id="XMLID_353_" class="st4" d="M46.2,17h-23c-0.1,0-0.2-0.1-0.2-0.2v-4.7c0-0.1,0.1-0.2,0.2-0.2h23c0.1,0,0.2,0.1,0.2,0.2
			v4.7C46.4,16.9,46.3,17,46.2,17z"/>
		<line id="XMLID_197_" class="st4" x1="46.4" y1="16.8" x2="32.1" y2="25.6"/>
		<line id="XMLID_172_" class="st4" x1="23.1" y1="25.8" x2="38.4" y2="17"/>
		<line id="XMLID_199_" class="st4" x1="46.2" y1="30.7" x2="32" y2="39.1"/>
		<line id="XMLID_198_" class="st4" x1="25" y1="37.5" x2="37.3" y2="30.7"/>
		<line id="XMLID_200_" class="st4" x1="27.5" y1="11.9" x2="27.5" y2="14.3"/>
		<line id="XMLID_159_" class="st4" x1="32.1" y1="11.9" x2="32.1" y2="14.3"/>
		<line id="XMLID_201_" class="st4" x1="36.8" y1="11.9" x2="36.8" y2="14.3"/>
		<line id="XMLID_202_" class="st4" x1="41.4" y1="11.9" x2="41.4" y2="14.3"/>
		<line id="XMLID_208_" class="st4" x1="27.5" y1="25.7" x2="27.5" y2="28.1"/>
		<line id="XMLID_205_" class="st4" x1="32.1" y1="25.7" x2="32.1" y2="28.1"/>
		<line id="XMLID_204_" class="st4" x1="36.8" y1="25.7" x2="36.8" y2="28.1"/>
		<line id="XMLID_203_" class="st4" x1="41.4" y1="25.7" x2="41.4" y2="28.1"/>
	</g>
	<g id="XMLID_264_" class="st0">
		<g id="XMLID_242_" class="st2">
			<path id="XMLID_267_" class="st3" d="M41.1,20.5H22.9l-2.3-10.5c0-0.1,0.1-0.2,0.2-0.1l5.8,3.8l5.4-3.9c0,0,0.1,0,0.1,0l4.9,3.9
				l6.3-3.8c0.1-0.1,0.2,0,0.2,0.1L41.1,20.5z"/>
			<polyline id="XMLID_252_" class="st3" points="41.3,22.2 41.3,25 22.9,25 22.9,22.2 			"/>
			<line id="XMLID_248_" class="st3" x1="27.2" y1="16.7" x2="28.8" y2="16.7"/>
			<line id="XMLID_247_" class="st3" x1="31.2" y1="16.7" x2="32.9" y2="16.7"/>
			<line id="XMLID_246_" class="st3" x1="35.3" y1="16.7" x2="36.9" y2="16.7"/>
		</g>
		<g id="XMLID_257_" class="st2">
			<path id="XMLID_233_" class="st3" d="M47.1,40.3H16.9c-1.4,0-2.6,1.2-2.6,2.6v3v3.9V54c0,0.1,0.1,0.2,0.2,0.2h2.3
				c0.1,0,0.2-0.1,0.2-0.2V50c0-0.1,0.1-0.2,0.2-0.2h29.7C47,49.9,47,50,47,50V54c0,0.1,0.1,0.2,0.2,0.2h2.3c0.1,0,0.2-0.1,0.2-0.2
				v-4.1v-3.9v-3C49.7,41.5,48.6,40.3,47.1,40.3z"/>
			<path id="XMLID_234_" class="st3" d="M43.1,28.1c0.5,0,0.8,0.4,0.9,0.8c0.3,1.2,1.2,2.1,2.4,2.4c0.4,0.1,0.8,0.5,0.8,0.9v8.1
				H16.7v-8.1c0-0.5,0.4-0.8,0.8-0.9c1.2-0.3,2.1-1.2,2.4-2.4c0.1-0.4,0.5-0.8,0.9-0.8H43.1z"/>
			<path id="XMLID_231_" class="st3" d="M28.3,36.1h-7.2c-1,0-1.7,0.8-1.7,1.7v2.5H30v-2.5C30,36.8,29.3,36.1,28.3,36.1z"/>
			<path id="XMLID_243_" class="st3" d="M42.5,36.1h-7.2c-1,0-1.7,0.8-1.7,1.7v2.5h10.6v-2.5C44.2,36.8,43.5,36.1,42.5,36.1z"/>
			<line id="XMLID_245_" class="st3" x1="14.3" y1="46.4" x2="38.4" y2="46.4"/>
			<line id="XMLID_256_" class="st3" x1="24.1" y1="31.6" x2="39.9" y2="31.6"/>
		</g>
	</g>
	<g id="XMLID_226_" class="st0">
		<path id="XMLID_259_" class="st4" d="M50.1,31H13.9c-1.7,0-3.1,1.4-3.1,3.1v3.6v4.7v4.9c0,0.1,0.1,0.2,0.2,0.2h2.7
			c0.1,0,0.2-0.1,0.2-0.2v-4.7c0-0.1,0.1-0.2,0.2-0.2h35.5c0.1,0,0.2,0.1,0.2,0.2v4.7c0,0.1,0.1,0.2,0.2,0.2h2.7
			c0.1,0,0.2-0.1,0.2-0.2v-4.9v-4.7v-3.6C53.2,32.4,51.8,31,50.1,31z"/>
		<path id="XMLID_258_" class="st4" d="M45.3,16.4c0.6,0,1,0.5,1.1,1c0.4,1.4,1.4,2.5,2.8,2.8c0.5,0.1,1,0.6,1,1.1V31H13.8v-9.7
			c0-0.6,0.5-1,1-1.1c1.4-0.4,2.5-1.4,2.8-2.8c0.1-0.5,0.6-1,1.1-1H45.3z"/>
		<path id="XMLID_255_" class="st4" d="M27.9,26h-9.2c-1,0-1.7,0.8-1.7,1.7V31h12.7v-3.3C29.7,26.7,28.9,26,27.9,26z"/>
		<path id="XMLID_254_" class="st4" d="M44.9,26h-9.2c-1,0-1.7,0.8-1.7,1.7V31h12.7v-3.3C46.6,26.7,45.8,26,44.9,26z"/>
		<line id="XMLID_253_" class="st4" x1="10.8" y1="38.3" x2="39.6" y2="38.3"/>
		<line id="XMLID_229_" class="st4" x1="22.6" y1="20.6" x2="41.4" y2="20.6"/>
	</g>
	<g id="XMLID_250_" class="st0">
		<g id="XMLID_225_" class="st2">
			<path id="XMLID_99_" class="st3" d="M39.3,35c2.6,0,4.6,2.1,4.6,4.7v9.2c0,0.1-0.1,0.2-0.2,0.2H8.9c-0.1,0-0.2-0.1-0.2-0.2v-9.2
				c0-2.6,2.1-4.7,4.6-4.7v9.3h25.9V35z"/>
			<path id="XMLID_212_" class="st3" d="M13,33.5L13,33.5c0-2.6,2.1-4.8,4.8-4.8H35c2.6,0,4.8,2.1,4.8,4.8l0,0"/>
			<line id="XMLID_213_" class="st3" x1="15.6" y1="39.9" x2="36.9" y2="39.9"/>
			<line id="XMLID_214_" class="st3" x1="18.1" y1="32.7" x2="19.8" y2="32.7"/>
			<line id="XMLID_68_" class="st3" x1="23" y1="32.7" x2="24.8" y2="32.7"/>
			<line id="XMLID_215_" class="st3" x1="28" y1="32.7" x2="29.7" y2="32.7"/>
			<line id="XMLID_216_" class="st3" x1="32.9" y1="32.7" x2="34.7" y2="32.7"/>
			<line id="XMLID_222_" class="st3" x1="18.1" y1="36.6" x2="19.8" y2="36.6"/>
			<line id="XMLID_221_" class="st3" x1="23" y1="36.6" x2="24.8" y2="36.6"/>
			<line id="XMLID_220_" class="st3" x1="28" y1="36.6" x2="29.7" y2="36.6"/>
			<line id="XMLID_217_" class="st3" x1="32.9" y1="36.6" x2="34.7" y2="36.6"/>
			<line id="XMLID_224_" class="st3" x1="13" y1="49" x2="13" y2="51.8"/>
			<line id="XMLID_223_" class="st3" x1="38.7" y1="49" x2="38.7" y2="51.8"/>
		</g>
		<path id="XMLID_232_" class="st4" d="M52.6,23.1H35.3c-0.1,0-0.2-0.1-0.2-0.2V12.4c0-0.1,0.1-0.2,0.2-0.2h17.3
			c0.1,0,0.2,0.1,0.2,0.2v10.6C52.8,23.1,52.7,23.1,52.6,23.1z"/>
		<polyline id="XMLID_236_" class="st4" points="50.1,19.5 38.8,19.5 38.8,14.2 		"/>
		<g id="XMLID_237_" class="st2">
			<line id="XMLID_228_" class="st3" x1="46.2" y1="43.2" x2="55.3" y2="43.2"/>
			<line id="XMLID_230_" class="st3" x1="50.8" y1="43.2" x2="50.8" y2="51.8"/>
			<line id="XMLID_235_" class="st3" x1="48.9" y1="39.4" x2="48.9" y2="42.3"/>
			<line id="XMLID_227_" class="st3" x1="52" y1="40.9" x2="52" y2="42.3"/>
		</g>
		<line id="XMLID_239_" class="st4" x1="8.8" y1="22.1" x2="31.3" y2="22.1"/>
		<line id="XMLID_240_" class="st4" x1="12.7" y1="13.8" x2="12.7" y2="22.1"/>
		<line id="XMLID_238_" class="st4" x1="15.8" y1="13.8" x2="15.8" y2="22.1"/>
		<line id="XMLID_241_" class="st4" x1="18.9" y1="15.5" x2="18.9" y2="22.1"/>
		<line id="XMLID_244_" class="st4" x1="22" y1="13.8" x2="22" y2="22.1"/>
		<line id="XMLID_249_" class="st4" x1="23" y1="15.1" x2="28.9" y2="20.8"/>
	</g>
	<g id="XMLID_260_" class="st0">
		<path id="XMLID_278_" class="st4" d="M47.9,32.8H16.1c-0.1,0-0.2,0.1-0.2,0.2v4.4v5.3v5.6c0,0.1,0.1,0.2,0.2,0.2h3.2
			c0.1,0,0.2-0.1,0.2-0.2V43c0-0.1,0.1-0.2,0.2-0.2h24.4c0.1,0,0.2,0.1,0.2,0.2v5.4c0,0.1,0.1,0.2,0.2,0.2h3.2
			c0.1,0,0.2-0.1,0.2-0.2v-5.6v-5.3V33C48.1,32.9,48,32.8,47.9,32.8z"/>
		<path id="XMLID_273_" class="st4" d="M19.2,30.8V21c0-0.6,0.5-1.1,1.1-1.3c1.6-0.4,2.8-1.6,3.2-3.2c0.2-0.6,0.7-1.1,1.3-1.1h14.3
			c0.6,0,1.1,0.5,1.3,1.1c0.4,1.6,1.6,2.8,3.2,3.2c0.6,0.2,1.1,0.7,1.1,1.3v9.8"/>
		<path id="XMLID_263_" class="st4" d="M39.2,30.8v-4c0-1-0.8-1.7-1.7-1.7h-11c-1,0-1.7,0.8-1.7,1.7v4"/>
		<line id="XMLID_262_" class="st4" x1="15.9" y1="39.2" x2="40.6" y2="39.2"/>
		<line id="XMLID_266_" class="st4" x1="25.2" y1="20.1" x2="27" y2="20.1"/>
		<line id="XMLID_261_" class="st4" x1="29.2" y1="20.1" x2="31" y2="20.1"/>
		<line id="XMLID_271_" class="st4" x1="33.2" y1="20.1" x2="35" y2="20.1"/>
		<line id="XMLID_272_" class="st4" x1="37.2" y1="20.1" x2="39" y2="20.1"/>
	</g>
	<g id="XMLID_283_" class="st0">
		<path id="XMLID_268_" class="st4" d="M28.6,42.9l-8.9-7.8c-0.9-0.8-1.4-1.9-1.4-3.1v-7.9l2.1-2.1L18.4,20V9.5h0.9l8.4,8.9
			c0.1,0.1,0.2,0.1,0.3,0.1h8.2c0.1,0,0.2,0,0.3-0.1l8.4-8.9h0.9V20l-2.1,2.1l2.1,2.1V32c0,1.2-0.5,2.3-1.4,3.1l-8.9,7.8H28.6z"/>
		<path id="XMLID_276_" class="st4" d="M39.4,42.9H44c0.1,0,0.2,0.1,0.2,0.2V47c0,0.1-0.1,0.2-0.2,0.2H20c-0.1,0-0.2-0.1-0.2-0.2
			v-3.9c0-0.1,0.1-0.2,0.2-0.2h4.8"/>
		<circle id="XMLID_275_" class="st4" cx="32" cy="50.8" r="3.6"/>
		<line id="XMLID_281_" class="st4" x1="25.1" y1="26.2" x2="28.4" y2="26.2"/>
		<line id="XMLID_280_" class="st4" x1="36.1" y1="26.2" x2="39.4" y2="26.2"/>
		<polyline id="XMLID_282_" class="st4" points="28.7,32.5 34.5,32.5 34.5,33.8 32.1,36.4 30.6,36.4 		"/>
	</g>
	<g id="XMLID_315_" class="st0">
		<g id="XMLID_304_" class="st2">
			<line id="XMLID_314_" class="st3" x1="16.8" y1="16.3" x2="18.9" y2="16.3"/>
			<line id="XMLID_313_" class="st3" x1="20.8" y1="16.3" x2="22.9" y2="16.3"/>
			<line id="XMLID_312_" class="st3" x1="24.8" y1="16.3" x2="26.9" y2="16.3"/>
			<line id="XMLID_311_" class="st3" x1="28.8" y1="16.3" x2="30.9" y2="16.3"/>
			<line id="XMLID_310_" class="st3" x1="32.8" y1="16.3" x2="34.9" y2="16.3"/>
		</g>
		<g id="XMLID_300_" class="st2">
			<g id="XMLID_292_">
				<g id="XMLID_299_">
					<path id="XMLID_465_" class="st3" d="M28.3,52.4H14c-0.1,0-0.1,0-0.1-0.1L11.3,38c0-0.1,0-0.1,0.1-0.1h19.4
						c0.1,0,0.1,0.1,0.1,0.1l-2.6,14.3C28.4,52.4,28.4,52.4,28.3,52.4z"/>
					<path id="XMLID_467_" class="st3" d="M30.3,50.9h2.4l0,0c0,2-1.6,3.6-3.6,3.6H13.2c-2,0-3.6-1.6-3.6-3.6l0,0H12"/>
					<path id="XMLID_468_" class="st3" d="M30.7,41.7h1.4c1.6,0,2.9,1.3,2.9,2.9l0,0c0,1.6-1.3,2.9-2.9,2.9h-2.6"/>
				</g>
				<line id="XMLID_297_" class="st3" x1="27.9" y1="26.1" x2="18.3" y2="26.1"/>
				<path id="XMLID_296_" class="st3" d="M20.2,36.5v-0.6c0-1.1-0.9-1.9-1.9-1.9h-4.2c-1.2,0-2.1-1-2.1-2.1l0,0c0-1.2,1-2.1,2.1-2.1
					h15.2c1,0,1.8-0.8,1.8-1.8l0,0c0-1-0.8-1.8-1.8-1.8"/>
				<path id="XMLID_294_" class="st3" d="M23.6,36.5l0-1.2c0-1.5,1.2-2.7,2.7-2.7h3.2"/>
			</g>
			<path id="XMLID_356_" class="st3" d="M46.4,54.6h7.7c0.1,0,0.2-0.1,0.2-0.2V28c0-2.3-1.9-4.2-4.2-4.2l0,0V9.4h-5v14.4l0,0
				c-2.3,0-4.2,1.9-4.2,4.2"/>
			<line id="XMLID_503_" class="st3" x1="43" y1="13.2" x2="52.5" y2="13.2"/>
			<line id="XMLID_502_" class="st3" x1="43" y1="16.3" x2="52.5" y2="16.3"/>
			<polyline id="XMLID_512_" class="st3" points="54.4,34.5 47.4,34.5 47.4,47.3 54.4,47.3 			"/>
			<line id="XMLID_514_" class="st3" x1="50.5" y1="38" x2="53.7" y2="38"/>
			<line id="XMLID_504_" class="st3" x1="50.5" y1="40.8" x2="53.7" y2="40.8"/>
			<line id="XMLID_515_" class="st3" x1="50.5" y1="43.6" x2="53.7" y2="43.6"/>
			<g id="XMLID_302_">
				<path id="XMLID_331_" class="st3" d="M40.6,43.6L40.6,43.6c-2.1,0-3.9-1.7-3.9-3.9v-9.7h7.8v9.7C44.5,41.8,42.8,43.6,40.6,43.6z
					"/>
				<line id="XMLID_330_" class="st3" x1="40.6" y1="43.6" x2="40.6" y2="54.6"/>
				<line id="XMLID_329_" class="st3" x1="35.9" y1="54.6" x2="45.1" y2="54.6"/>
			</g>
		</g>
	</g>
	<g id="XMLID_308_" class="st0">
		<circle id="XMLID_301_" class="st4" cx="38.5" cy="27.5" r="2.2"/>
		<path id="XMLID_285_" class="st4" d="M26.5,42.7c0-6.6,5.4-12,12-12s12,5.4,12,12"/>
		<polyline id="XMLID_298_" class="st4" points="56.1,52.1 56.1,48 7.9,48 7.9,52.1 		"/>
		<polyline id="XMLID_284_" class="st4" points="23.9,46.9 23.9,44.6 53.7,44.6 53.7,46.9 		"/>
		<line id="XMLID_307_" class="st4" x1="22.6" y1="17.6" x2="22.6" y2="28.6"/>
		<path id="XMLID_306_" class="st4" d="M22.6,17.5v-1.2c0-2.4-2-4.4-4.4-4.4l0,0v6.8c0,2.4,2,4.4,4.4,4.4l0,0V17.5z"/>
		<path id="XMLID_305_" class="st4" d="M22.8,17.5v-1.2c0-2.4,2-4.4,4.4-4.4l0,0v6.8c0,2.4-2,4.4-4.4,4.4l0,0V17.5z"/>
		<polyline id="XMLID_303_" class="st4" points="20.3,48 20.3,30 25.3,30 25.3,36.5 26,36.8 		"/>
		<g id="XMLID_357_" class="st2">
			<path id="XMLID_360_" class="st3" d="M13.5,37.6L13.5,37.6c-1.7,0-3.1-1.4-3.1-3.1v-7.8h6.2v7.8C16.5,36.2,15.2,37.6,13.5,37.6z"
				/>
			<line id="XMLID_359_" class="st3" x1="13.5" y1="37.6" x2="13.5" y2="46.3"/>
			<line id="XMLID_358_" class="st3" x1="9.7" y1="46.3" x2="17" y2="46.3"/>
		</g>
	</g>
	<g id="XMLID_335_" class="st0">
		<g id="XMLID_333_" class="st2">
			<g id="XMLID_317_">
				<line id="XMLID_326_" class="st3" x1="19.7" y1="27.6" x2="20.8" y2="26.6"/>
				<line id="XMLID_323_" class="st3" x1="21.7" y1="25.6" x2="22.8" y2="24.6"/>
				<line id="XMLID_321_" class="st3" x1="23.7" y1="23.6" x2="24.8" y2="22.6"/>
				<line id="XMLID_320_" class="st3" x1="25.7" y1="21.6" x2="26.8" y2="20.6"/>
			</g>
			<g id="XMLID_319_">
				<line id="XMLID_332_" class="st3" x1="22.7" y1="28.6" x2="23.8" y2="27.6"/>
				<line id="XMLID_328_" class="st3" x1="24.7" y1="26.6" x2="25.8" y2="25.6"/>
				<line id="XMLID_327_" class="st3" x1="26.7" y1="24.6" x2="27.8" y2="23.6"/>
			</g>
			<path id="XMLID_316_" class="st3" d="M35.6,29.7l-6.7,6.7c-0.3,0.3-0.7,0.3-1,0.1l-11.2-7.9c-0.4-0.3-0.4-0.8-0.1-1.2l10-10
				c0.3-0.3,0.9-0.3,1.2,0.1l7.9,11.2C35.9,29,35.8,29.4,35.6,29.7z"/>
			<path id="XMLID_318_" class="st3" d="M17.9,29.5c0,0-1.3,5.3,0.1,10.5c0.1,0.5,0.6,0.8,1.1,0.9l6.3,0.4c0.7,0,1.3-0.5,1.3-1.2
				c0-1.4,0.1-3.4,0.7-3.8"/>
			<path id="XMLID_322_" class="st3" d="M19.1,40.8c0,0,0.8,2.1,5.2,6.4c0.3,0.3,0.7,0.3,1,0l0,0c0.3-0.3,0.4-0.8,0.3-1.2
				c-0.3-1.1-0.7-3.2-0.2-4.8"/>
			<path id="XMLID_325_" class="st3" d="M28.9,18.4c0,0,5.3-1.3,10.5,0.1c0.5,0.1,0.8,0.6,0.9,1.1l0.4,6.3c0,0.7-0.5,1.3-1.2,1.3
				c-1.4,0-3.4,0.1-3.8,0.7"/>
			<path id="XMLID_324_" class="st3" d="M40.3,19.7c0,0,2.1,0.8,6.4,5.2c0.3,0.3,0.3,0.7,0,1l0,0c-0.3,0.3-0.8,0.4-1.2,0.3
				c-1.1-0.3-3.2-0.7-4.8-0.2"/>
		</g>
		<path id="XMLID_336_" class="st4" d="M53.9,32c0,12.1-9.8,21.9-21.9,21.9S10.1,44.1,10.1,32S19.9,10.1,32,10.1"/>
		<path id="XMLID_334_" class="st5" d="M32,10.1c12.1,0,21.9,9.8,21.9,21.9"/>
	</g>
	<g id="XMLID_443_" class="st0">
		<path id="XMLID_340_" class="st4" d="M44.2,54.7V16c0-0.1-0.1-0.2-0.2-0.2H13.3c-0.1,0-0.2,0.1-0.2,0.2v38.7"/>
		<path id="XMLID_416_" class="st4" d="M22.5,39.3h-5.8c-0.1,0-0.2-0.1-0.2-0.2V27.4c0-0.1,0.1-0.2,0.2-0.2h5.8
			c0.1,0,0.2,0.1,0.2,0.2v11.7C22.7,39.2,22.6,39.3,22.5,39.3z"/>
		<path id="XMLID_418_" class="st4" d="M31.8,39.3H26c-0.1,0-0.2-0.1-0.2-0.2V27.4c0-0.1,0.1-0.2,0.2-0.2h5.8c0.1,0,0.2,0.1,0.2,0.2
			v11.7C32.1,39.2,32,39.3,31.8,39.3z"/>
		<path id="XMLID_419_" class="st4" d="M41.2,39.3h-5.8c-0.1,0-0.2-0.1-0.2-0.2V27.4c0-0.1,0.1-0.2,0.2-0.2h5.8
			c0.1,0,0.2,0.1,0.2,0.2v11.7C41.5,39.2,41.3,39.3,41.2,39.3z"/>
		<line id="XMLID_431_" class="st4" x1="13.1" y1="23.8" x2="44.2" y2="23.8"/>
		<path id="XMLID_430_" class="st4" d="M41.3,51.6H16.6c-0.1,0-0.2-0.1-0.2-0.2v-7.3c0-0.1,0.1-0.2,0.2-0.2h24.7
			c0.1,0,0.2,0.1,0.2,0.2v7.3C41.5,51.5,41.4,51.6,41.3,51.6z"/>
		<rect id="XMLID_436_" x="45" y="32.5" class="st4" width="5.9" height="7.5"/>
		<line id="XMLID_439_" class="st4" x1="48.4" y1="22.5" x2="48.4" y2="32.1"/>
		<circle id="XMLID_440_" class="st4" cx="48.4" cy="21.2" r="1.9"/>
		<path id="XMLID_339_" class="st4" d="M32.4,14v-1c0-2-1.7-3.7-3.7-3.7l0,0c-2,0-3.7,1.7-3.7,3.7v1"/>
		<line id="XMLID_342_" class="st4" x1="18.6" y1="30.1" x2="20.5" y2="30.1"/>
		<line id="XMLID_341_" class="st4" x1="18.6" y1="33.2" x2="20.5" y2="33.2"/>
		<line id="XMLID_343_" class="st4" x1="18.6" y1="36.3" x2="20.5" y2="36.3"/>
		<line id="XMLID_346_" class="st4" x1="27.9" y1="30.1" x2="29.8" y2="30.1"/>
		<line id="XMLID_345_" class="st4" x1="27.9" y1="33.2" x2="29.8" y2="33.2"/>
		<line id="XMLID_344_" class="st4" x1="27.9" y1="36.3" x2="29.8" y2="36.3"/>
		<line id="XMLID_349_" class="st4" x1="37.2" y1="30.1" x2="39.1" y2="30.1"/>
		<line id="XMLID_348_" class="st4" x1="37.2" y1="33.2" x2="39.1" y2="33.2"/>
		<line id="XMLID_347_" class="st4" x1="37.2" y1="36.3" x2="39.1" y2="36.3"/>
		<line id="XMLID_363_" class="st4" x1="16.4" y1="47.7" x2="23.5" y2="47.7"/>
		<line id="XMLID_361_" class="st4" x1="34.4" y1="47.7" x2="41.5" y2="47.7"/>
		<line id="XMLID_367_" class="st4" x1="21.2" y1="19.3" x2="23.8" y2="19.3"/>
		<line id="XMLID_366_" class="st4" x1="27.2" y1="19.3" x2="29.8" y2="19.3"/>
		<line id="XMLID_368_" class="st4" x1="33.2" y1="19.3" x2="35.8" y2="19.3"/>
	</g>
	<g id="XMLID_372_" class="st0">
		<path id="XMLID_385_" class="st4" d="M12.9,52.8V11.4c0-0.1,0.1-0.2,0.2-0.2h38c0.1,0,0.2,0.1,0.2,0.2v18.3"/>
		<line id="XMLID_383_" class="st4" x1="13" y1="18.9" x2="51.3" y2="18.9"/>
		<line id="XMLID_382_" class="st4" x1="16.1" y1="15.2" x2="18.4" y2="15.2"/>
		<line id="XMLID_370_" class="st4" x1="20.1" y1="15.2" x2="22.4" y2="15.2"/>
		<line id="XMLID_379_" class="st4" x1="24.1" y1="15.2" x2="26.4" y2="15.2"/>
		<g id="XMLID_375_" class="st2">
			<line id="XMLID_378_" class="st3" x1="25.5" y1="30.1" x2="29.9" y2="34.5"/>
			<polyline id="XMLID_377_" class="st3" points="28.9,29.3 24.7,29.3 24.7,33.5 			"/>
			<path id="XMLID_376_" class="st6" d="M24.7,37.7c-2.1-0.2-4.1-1.3-5.4-3.3c-2.3-3.4-1.4-8.1,2-10.4c3.4-2.3,8.1-1.4,10.4,2
				c1.1,1.6,1.4,3.4,1.2,5.2"/>
		</g>
		<line id="XMLID_373_" class="st4" x1="38.6" y1="41.2" x2="50" y2="41.2"/>
		<line id="XMLID_371_" class="st4" x1="17.2" y1="45.3" x2="31.9" y2="45.3"/>
		<line id="XMLID_386_" class="st4" x1="8.4" y1="52.8" x2="55.6" y2="52.8"/>
		<path id="XMLID_472_" class="st4" d="M34.5,52.2V33.3c0-0.6,0.5-1.1,1.1-1.1h17.1c0.6,0,1.1,0.5,1.1,1.1v18.9"/>
	</g>
	<g id="XMLID_392_" class="st0">
		<g id="XMLID_380_" class="st2">
			<path id="XMLID_374_" class="st3" d="M33.5,48.8H14.4c-0.1,0-0.2-0.1-0.2-0.2V15.3c0-0.1,0.1-0.2,0.2-0.2h19.1
				c0.1,0,0.2,0.1,0.2,0.2v33.3C33.7,48.8,33.6,48.8,33.5,48.8z"/>
			<path id="XMLID_389_" class="st3" d="M29.5,26v-3.9c-1.2,0-2.2-1-2.2-2.2h-6.9c0,1.2-1,2.2-2.2,2.2V26"/>
			<path id="XMLID_388_" class="st3" d="M18.4,38v3.8c1.2,0,2.2,1,2.2,2.2c0,0,0,0.1,0,0.1h6.9c0,0,0-0.1,0-0.1c0-1.2,1-2.2,2.2-2.2
				V38"/>
			<line id="XMLID_390_" class="st3" x1="29" y1="32.3" x2="30.6" y2="32.3"/>
			<line id="XMLID_393_" class="st3" x1="23.1" y1="26" x2="24.8" y2="26"/>
		</g>
		<polyline id="XMLID_394_" class="st4" points="47.7,31.3 37.6,31.3 37.6,31.1 40.1,26.8 		"/>
		<polyline id="XMLID_396_" class="st4" points="36.6,34.8 46.7,34.8 46.7,35 44.2,39.3 		"/>
		<path id="XMLID_391_" class="st4" d="M37.6,15.2H50c0.1,0,0.2,0.1,0.2,0.2v33.3c0,0.1,0.1,0.2,0.2,0.2h5.6"/>
		<line id="XMLID_395_" class="st4" x1="8.1" y1="48.8" x2="11.8" y2="48.8"/>
	</g>
	<g id="XMLID_433_" class="st0">
		<g id="XMLID_406_" class="st2">
			<g id="XMLID_426_">
				<path id="XMLID_429_" class="st3" d="M37.1,39.9h-3.3c-0.9,0-1.6,0.7-1.6,1.6l0,0c0,0.9,0.7,1.6,1.6,1.6h1.6
					c0.9,0,1.6,0.7,1.6,1.6l0,0c0,0.9-0.7,1.6-1.6,1.6H32"/>
				<line id="XMLID_428_" class="st3" x1="34.7" y1="38.2" x2="34.7" y2="39.9"/>
				<line id="XMLID_427_" class="st3" x1="34.7" y1="46.4" x2="34.7" y2="48"/>
			</g>
			<path id="XMLID_425_" class="st3" d="M51.3,52.9H17.8c-1.1,0-2-0.9-2-2V35.2c0-1.1,0.9-2,2-2h33.5c1.1,0,2,0.9,2,2V51
				C53.3,52.1,52.4,52.9,51.3,52.9z"/>
			<path id="XMLID_423_" class="st3" d="M21.7,33.2c0,3.2-2.6,5.8-5.8,5.8"/>
			<path id="XMLID_422_" class="st3" d="M47.4,33.2c0,3.2,2.6,5.8,5.8,5.8"/>
			<path id="XMLID_417_" class="st3" d="M21.7,52.9c0-3.2-2.6-5.8-5.8-5.8"/>
			<path id="XMLID_415_" class="st3" d="M47.4,52.9c0-3.2,2.6-5.8,5.8-5.8"/>
			<circle id="XMLID_410_" class="st3" cx="34.6" cy="43.1" r="6.8"/>
			<line id="XMLID_409_" class="st3" x1="23.4" y1="43.1" x2="25.7" y2="43.1"/>
			<line id="XMLID_408_" class="st3" x1="43.2" y1="43.1" x2="45.4" y2="43.1"/>
		</g>
		<path id="XMLID_405_" class="st4" d="M34.7,31.6V11.3c0-0.1-0.1-0.2-0.2-0.2H10.9c-0.1,0-0.2,0.1-0.2,0.2v41.4
			c0,0.2,0.1,0.3,0.3,0.3h3.4"/>
		<line id="XMLID_403_" class="st4" x1="28.9" y1="15.6" x2="28.9" y2="19.8"/>
		<line id="XMLID_402_" class="st4" x1="28.9" y1="21.9" x2="28.9" y2="26.1"/>
		<line id="XMLID_401_" class="st4" x1="28.9" y1="28.1" x2="28.9" y2="30.8"/>
		<path id="XMLID_400_" class="st4" d="M21.2,25h-5.1c-0.1,0-0.2-0.1-0.2-0.2v-7.9c0-0.1,0.1-0.2,0.2-0.2h5.1c0.1,0,0.2,0.1,0.2,0.2
			v7.9C21.4,24.9,21.3,25,21.2,25z"/>
		<g id="XMLID_432_" class="st2">
			<polyline id="XMLID_399_" class="st3" points="42.4,19.2 45.7,22.5 53.3,14.9 			"/>
			<path id="XMLID_398_" class="st3" d="M51.7,20.8c0,3.6-2.9,6.4-6.4,6.4c-3.6,0-6.4-2.9-6.4-6.4c0-3.6,2.9-6.4,6.4-6.4
				c1.2,0,2.3,0.3,3.3,0.9"/>
		</g>
	</g>
	<g id="XMLID_462_" class="st0">
		<g id="XMLID_51_" class="st2">
			<line id="XMLID_56_" class="st3" x1="40.9" y1="23.7" x2="43.1" y2="23.7"/>
			<line id="XMLID_55_" class="st3" x1="44.9" y1="23.7" x2="47.1" y2="23.7"/>
			<line id="XMLID_54_" class="st3" x1="48.9" y1="23.7" x2="51.1" y2="23.7"/>
		</g>
		<g id="XMLID_412_" class="st2">
			<path id="XMLID_463_" class="st3" d="M36.9,34.1h15.7c0.1,0,0.2,0.1,0.2,0.2v17.8c0,0.1-0.1,0.2-0.2,0.2H36.9"/>
			<path id="XMLID_461_" class="st3" d="M11.2,51.7c0,0.3,0.2,0.5,0.5,0.5h23.1c0.3,0,0.5-0.2,0.5-0.5V19.1c0-0.3-0.2-0.5-0.5-0.5
				H11.7c-0.3,0-0.5,0.2-0.5,0.5V51.7z"/>
			<line id="XMLID_460_" class="st3" x1="20.4" y1="11" x2="20.4" y2="17.9"/>
			<line id="XMLID_458_" class="st3" x1="26.3" y1="11" x2="26.3" y2="17.9"/>
			<path id="XMLID_456_" class="st3" d="M27.6,11.7h-8.7c-0.7,0-1.2-0.6-1.2-1.2l0,0c0-0.7,0.6-1.2,1.2-1.2h8.7
				c0.7,0,1.2,0.6,1.2,1.2l0,0C28.9,11.2,28.3,11.7,27.6,11.7z"/>
			<line id="XMLID_452_" class="st3" x1="16.3" y1="52.3" x2="16.3" y2="54.7"/>
			<line id="XMLID_451_" class="st3" x1="30" y1="52.3" x2="30" y2="54.7"/>
			<line id="XMLID_446_" class="st3" x1="45.2" y1="52.3" x2="45.2" y2="54.7"/>
			<line id="XMLID_442_" class="st3" x1="17.8" y1="49.8" x2="17.8" y2="21.1"/>
			<line id="XMLID_441_" class="st3" x1="23.4" y1="49.8" x2="23.4" y2="21.1"/>
			<line id="XMLID_438_" class="st3" x1="29" y1="33.2" x2="29" y2="21.1"/>
			<line id="XMLID_444_" class="st3" x1="29" y1="49.8" x2="29" y2="35.5"/>
			<path id="XMLID_437_" class="st3" d="M52.8,39.2c-2.8,0-5.1-2.3-5.1-5.1"/>
			<path id="XMLID_435_" class="st3" d="M52.8,47c-2.8,0-5.1,2.3-5.1,5.1"/>
			<path id="XMLID_420_" class="st3" d="M43.4,33.8L43.4,33.8c0-2-1.6-3.6-3.6-3.6h-2.9"/>
		</g>
	</g>
	<g id="XMLID_476_" class="st0">
		<g id="XMLID_474_" class="st2">
			<line id="XMLID_487_" class="st3" x1="25" y1="46.2" x2="27.1" y2="46.2"/>
			<line id="XMLID_486_" class="st3" x1="29" y1="46.2" x2="31.1" y2="46.2"/>
			<line id="XMLID_485_" class="st3" x1="33" y1="46.2" x2="35.1" y2="46.2"/>
			<line id="XMLID_484_" class="st3" x1="37" y1="46.2" x2="39.1" y2="46.2"/>
		</g>
		<g id="XMLID_454_" class="st2">
			<path id="XMLID_482_" class="st3" d="M23,31.6V27c0-0.4,0.3-0.8,0.7-1l5.7-2v-2.2"/>
			<path id="XMLID_480_" class="st3" d="M41,31.6V27c0-0.4-0.3-0.8-0.7-1l-5.7-2v-2.2"/>
			<path id="XMLID_477_" class="st3" d="M36.4,14.6c0-2.4-1.9-4.3-4.3-4.3s-4.3,1.9-4.3,4.3l0.4,5.2c0.1,0.7,0.5,1.3,1.1,1.7
				l2.1,1.4h1.4l2.2-1.4c0.5-0.3,0.8-0.7,1-1.2c0-0.1,0.1-0.3,0.1-0.4L36.4,14.6z"/>
			<polyline id="XMLID_473_" class="st3" points="29.5,24.1 31.1,25.9 33,25.9 34.6,24.1 			"/>
		</g>
		<g id="XMLID_469_" class="st2">
			<path id="XMLID_466_" class="st3" d="M24.6,38.8H16c-0.1,0-0.2-0.1-0.2-0.2v-4.7c0-0.1,0.1-0.2,0.2-0.2h32c0.1,0,0.2,0.1,0.2,0.2
				v4.7c0,0.1-0.1,0.2-0.2,0.2H34.2"/>
			<line id="XMLID_470_" class="st3" x1="22.2" y1="53.8" x2="22.2" y2="38.7"/>
			<line id="XMLID_457_" class="st3" x1="41.8" y1="38.7" x2="41.8" y2="53.8"/>
		</g>
		<path id="XMLID_475_" class="st4" d="M11.3,53.8V15.6c0-0.1,0.1-0.2,0.2-0.2h13.4"/>
		<path id="XMLID_471_" class="st4" d="M39.1,15.5h13.4c0.1,0,0.2,0.1,0.2,0.2v38.1"/>
	</g>
	<g id="XMLID_478_" class="st0">
		<path id="XMLID_495_" class="st4" d="M17.9,24.7c-1.8-3.8-1.4-8.3-1.4-8.3s4.3-0.4,8.1,1.4"/>
		<path id="XMLID_494_" class="st4" d="M39.5,17.8c3.8-1.7,8.1-1.3,8.1-1.3s0.4,4.4-1.4,8.3"/>
		<path id="XMLID_493_" class="st4" d="M46.2,39.6c1.7,3.8,1.3,8,1.3,8s-4.3,0.4-8-1.3"/>
		<path id="XMLID_492_" class="st4" d="M24.6,46.2c-3.8,1.7-8.1,1.4-8.1,1.4s-0.4-4.4,1.4-8.2"/>
		<path id="XMLID_491_" class="st4" d="M42.2,26.6c-2.1,0-4.1,0.3-5.7,0.9c0.6-1.6,0.9-3.6,0.9-5.7c0-5.3-4.7-9.6-5.4-10.2
			c0,0-0.1,0-0.2,0c-0.7,0.6-5.4,4.9-5.4,10.2c0,2.1,0.3,4.1,0.9,5.7c-1.6-0.6-3.6-0.9-5.7-0.9c-5.3,0-9.6,4.7-10.2,5.3
			c0,0,0,0.1,0,0.2c0.6,0.7,4.9,5.4,10.1,5.4c2.1,0,4.1-0.3,5.7-0.9c-0.6,1.6-0.9,3.6-0.9,5.7c0,5.3,4.7,9.6,5.3,10.2
			c0,0,0.1,0,0.2,0c0.7-0.6,5.4-4.9,5.4-10.2c0-2.1-0.3-4.1-0.9-5.7c1.6,0.6,3.6,0.9,5.7,0.9c5.3,0,9.6-4.7,10.2-5.4
			c0,0,0-0.1,0-0.2C51.8,31.3,47.5,26.6,42.2,26.6z"/>
		<line id="XMLID_489_" class="st4" x1="20.9" y1="21.9" x2="22.8" y2="21.9"/>
		<line id="XMLID_481_" class="st4" x1="40.5" y1="21.9" x2="42.4" y2="21.9"/>
		<line id="XMLID_496_" class="st4" x1="20.9" y1="41.5" x2="22.8" y2="41.5"/>
		<line id="XMLID_490_" class="st4" x1="40.5" y1="41.5" x2="42.4" y2="41.5"/>
		<line id="XMLID_497_" class="st4" x1="31" y1="32" x2="33" y2="32"/>
	</g>
	<g id="XMLID_508_">
		<g id="XMLID_507_">
			<g id="XMLID_525_">
				<path id="XMLID_530_" class="st3" d="M7,47.8v-6c0-0.5,0.3-0.9,0.8-1.1l6.5-2.2V36"/>
				<polyline id="XMLID_529_" class="st3" points="26.4,40.6 19.9,38.5 19.9,36 				"/>
				<path id="XMLID_528_" class="st3" d="M12.5,30.5l0.2,3.1c0.1,0.8,0.5,1.5,1.2,1.9l2.4,1.6h1.6l2.4-1.6c0.7-0.4,1.2-1.1,1.2-1.9
					l0.2-5.8"/>
				<polyline id="XMLID_527_" class="st3" points="14.2,38.5 16,40.5 18.2,40.5 20,38.5 				"/>
				<path id="XMLID_526_" class="st3" d="M24.2,21.4v2.2c0,1.2-0.9,2.1-2.1,2.1h-8.4c-0.6,0-1.1,0.5-1.1,1.1v2
					c0,0.1-0.1,0.2-0.2,0.2h-1.1c-0.1,0-0.2-0.1-0.2-0.2v-4.6c0.2-0.7,1-0.7,1.3-0.7c0.1,0,0.2-0.1,0.2-0.2c0.1-1.1,1-1.9,2.1-1.9
					H24.2z"/>
			</g>
			<g id="XMLID_564_">
				<path id="XMLID_568_" class="st3" d="M24.4,52.4v-3.8c0-0.4,0.2-0.7,0.6-0.8l4.7-1.6v-2.6"/>
				<path id="XMLID_567_" class="st3" d="M39,52.4v-3.8c0-0.4-0.2-0.7-0.6-0.8l-4.7-1.6v-2.6"/>
				<path id="XMLID_566_" class="st3" d="M35.2,37.6c0-2-1.6-3.5-3.5-3.5s-3.5,1.6-3.5,3.5l0.3,4.2c0,0.6,0.4,1.1,0.9,1.3l1.7,1.1
					h1.1l1.8-1.1c0.5-0.3,0.8-0.8,0.9-1.3L35.2,37.6z"/>
				<polyline id="XMLID_565_" class="st3" points="29.6,46.2 30.9,47.7 32.5,47.7 33.8,46.2 				"/>
			</g>
			<g id="XMLID_505_">
				<polyline id="XMLID_563_" class="st3" points="37.2,41.3 43.8,39.1 43.8,35.4 				"/>
				<path id="XMLID_560_" class="st3" d="M57,47.8v-5.4c0-0.5-0.3-1-0.8-1.1l-6.6-2.2v-3.7"/>
				<path id="XMLID_531_" class="st3" d="M51.7,27l-0.5,6c-0.1,0.8-0.5,1.5-1.2,1.9l-2.5,1.6h-1.6l-2.4-1.6
					c-0.7-0.4-1.2-1.1-1.2-1.9l-0.5-6h3.4c1.9,0,3.3-1.6,3.1-3.5l0,0"/>
				<polyline id="XMLID_557_" class="st3" points="43.8,39.1 45.7,41.2 47.9,41.2 49.8,39.1 				"/>
				<path id="XMLID_532_" class="st3" d="M53.7,40.7V26.4c0-3.7-3-6.7-6.7-6.7l0,0c-3.7,0-6.7,3-6.7,6.7v14.2"/>
			</g>
		</g>
		<path id="XMLID_521_" class="st3" d="M40.8,16c0-2.4-2-4.4-4.4-4.4c-1.2,0-2.3,0.5-3.1,1.3c-0.8-0.8-1.9-1.3-3.1-1.3
			c-2.4,0-4.4,2-4.4,4.4c0,1.2,0.5,2.2,1.2,3l6.2,6.2l6.4-6.3c0.1-0.1,0.3-0.3,0.3-0.3C40.5,17.8,40.8,16.9,40.8,16z"/>
	</g>
	<g id="XMLID_384_" class="st0">
		<path id="XMLID_381_" class="st4" d="M43.2,26.6c1,1.8,1.6,3.9,1.6,6.1c0.1,9.1-11.3,19.6-12.6,20.9c-0.1,0.1-0.2,0.1-0.3,0
			c-1-0.9-6.8-6.2-10.2-12.5c-1.5-2.7-2.5-5.6-2.5-8.3c0-2.2,0.6-4.3,1.6-6.1"/>
		<circle id="XMLID_513_" class="st4" cx="32" cy="31.5" r="4.9"/>
		<path id="XMLID_518_" class="st4" d="M25.4,25c0.8-0.8,1.8-1.5,3-2c1.1-0.5,2.3-0.7,3.6-0.7c1.3,0,2.5,0.3,3.6,0.7
			c1.1,0.5,2.1,1.2,3,2"/>
		<path id="XMLID_536_" class="st4" d="M22.3,20.3c1.2-1.2,2.7-2.3,4.4-3c1.6-0.7,3.5-1.1,5.4-1.1c1.9,0,3.7,0.4,5.4,1.1
			s3.1,1.7,4.4,3"/>
		<path id="XMLID_510_" class="st7" d="M18.2,16.1c1.8-1.8,3.9-3.2,6.2-4.2s4.9-1.5,7.6-1.5c2.7,0,5.2,0.5,7.6,1.5
			c2.3,1,4.4,2.4,6.2,4.2"/>
	</g>
	<g id="XMLID_520_" class="st0">
		<path id="XMLID_535_" class="st4" d="M41.9,25.8c0.1,6.9-8.5,14.9-9.6,15.8c-0.1,0.1-0.1,0.1-0.2,0c-1-0.9-9.6-8.9-9.6-15.8
			c0-5.3,4.3-9.7,9.7-9.7C37.6,16.1,41.9,20.4,41.9,25.8z"/>
		<circle id="XMLID_533_" class="st4" cx="32.3" cy="25.8" r="5.3"/>
		<path id="XMLID_524_" class="st7" d="M21.2,37.3c-2.8-2.8-4.6-6.7-4.6-11c0-4.3,1.7-8.2,4.6-11c2.8-2.8,6.7-4.6,11-4.6
			c4.3,0,8.2,1.7,11,4.6c2.8,2.8,4.6,6.7,4.6,11c0,4.3-1.7,8.2-4.6,11"/>
		<path id="XMLID_523_" class="st4" d="M49.6,33.3h2.5c0.1,0,0.2,0.1,0.2,0.2l2,19.5c0,0.1-0.1,0.3-0.2,0.3H10
			c-0.1,0-0.3-0.1-0.2-0.3l2-19.5c0-0.1,0.1-0.2,0.2-0.2h2.8"/>
		<polyline id="XMLID_522_" class="st4" points="13.4,42 20.4,42 20.4,47.4 32,47.4 32,43.4 		"/>
	</g>
	<g id="XMLID_552_" class="st0">
		<path id="XMLID_516_" class="st4" d="M46.3,11.2v41.5c0,0.1-0.1,0.2-0.2,0.2H17.9c-0.1,0-0.2-0.1-0.2-0.2V11.2
			c0-0.1,0.1-0.2,0.2-0.2h28.1C46.2,11,46.3,11.1,46.3,11.2z"/>
		<g id="XMLID_555_" class="st2">
			<path id="XMLID_574_" class="st3" d="M40.3,45.3V42c0-0.6-0.5-1-1-1h-8.1c-0.6,0-1,0.5-1,1v3.4c0,0.6,0.5,1,1,1h8.1
				C39.8,46.4,40.3,45.9,40.3,45.3z"/>
			<line id="XMLID_573_" class="st3" x1="35.2" y1="25" x2="35.2" y2="41"/>
			<line id="XMLID_572_" class="st3" x1="35.2" y1="28" x2="40.4" y2="28"/>
			<line id="XMLID_571_" class="st3" x1="35.2" y1="31.8" x2="39.3" y2="31.8"/>
			<path id="XMLID_570_" class="st3" d="M32.7,46.4c0,1.4,1.2,2.6,2.6,2.6c1.4,0,2.6-1.2,2.6-2.6"/>
			<line id="XMLID_569_" class="st3" x1="35.2" y1="42.8" x2="35.2" y2="44.6"/>
		</g>
		<line id="XMLID_576_" class="st4" x1="17.7" y1="21.8" x2="46.3" y2="21.8"/>
		<line id="XMLID_577_" class="st4" x1="20.5" y1="16" x2="22.8" y2="16"/>
		<line id="XMLID_575_" class="st4" x1="24.5" y1="16" x2="26.8" y2="16"/>
		<line id="XMLID_579_" class="st4" x1="36.7" y1="16" x2="39" y2="16"/>
		<line id="XMLID_539_" class="st4" x1="32.7" y1="16" x2="34.9" y2="16"/>
		<line id="XMLID_540_" class="st4" x1="28.6" y1="16" x2="30.9" y2="16"/>
		<line id="XMLID_578_" class="st4" x1="40.8" y1="16" x2="43.1" y2="16"/>
		<line id="XMLID_580_" class="st4" x1="24" y1="53" x2="24" y2="21.8"/>
	</g>
</g>
<g id="Icon_text" class="st0">
	<g id="XMLID_67_" class="st2">
		<text id="XMLID_543_" transform="matrix(1 0 0 1 -174.3244 -76.1667)" class="st8 st9 st10">RESTAURANT</text>
	</g>
	<g id="XMLID_173_" class="st2">
		<text id="XMLID_544_" transform="matrix(1 0 0 1 -68.4146 -77.016)" class="st8 st9 st10">CHEF</text>
	</g>
	<g id="XMLID_157_" class="st2">
		<text id="XMLID_545_" transform="matrix(1 0 0 1 11.1654 -77.8652)" class="st8 st9 st10">RECEPTION</text>
	</g>
	<g id="XMLID_155_" class="st2">
		<text id="XMLID_546_" transform="matrix(1 0 0 1 111.2822 -77.865)" class="st8 st9 st10">HOTEL</text>
	</g>
	<g id="XMLID_196_" class="st2">
		<text id="XMLID_547_" transform="matrix(1 0 0 1 184.3847 -77.8651)" class="st8 st9 st10">GUEST PARKING</text>
	</g>
	<g id="XMLID_414_" class="st2">
		<text id="XMLID_548_" transform="matrix(1 0 0 1 -164.6945 18.0698)"><tspan x="0" y="0" class="st8 st9 st10">FITNESS</tspan><tspan x="0.4" y="7" class="st8 st9 st10">CENTER</tspan></text>
	</g>
	<g id="XMLID_251_" class="st2">
		<text id="XMLID_549_" transform="matrix(1 0 0 1 -74.0351 18.0698)" class="st8 st9 st10">LOUNGE</text>
	</g>
	<g id="XMLID_269_" class="st2">
		<text id="XMLID_550_" transform="matrix(1 0 0 1 25.2625 18.07)"><tspan x="0" y="0" class="st8 st9 st10">LUX</tspan><tspan x="-6.8" y="7" class="st8 st9 st10">ROOMS</tspan></text>
	</g>
	<g id="XMLID_277_" class="st2">
		<text id="XMLID_551_" transform="matrix(1 0 0 1 108.3459 17.221)"><tspan x="0" y="0" class="st8 st9 st10">DOUBLE</tspan><tspan x="7.5" y="7" class="st8 st9 st10">BED</tspan></text>
	</g>
	<g id="XMLID_274_" class="st2">
		<text id="XMLID_553_" transform="matrix(1 0 0 1 201.1024 17.2206)"><tspan x="0" y="0" class="st8 st9 st10">SINGLE</tspan><tspan x="5.8" y="7" class="st8 st9 st10">BED</tspan></text>
	</g>
	<g id="XMLID_279_" class="st2">
		<text id="XMLID_554_" transform="matrix(1 0 0 1 -156.5816 114.4163)"><tspan x="0" y="0" class="st8 st9 st10">PET</tspan><tspan x="-11" y="7" class="st8 st9 st10">FRIENDLY</tspan></text>
	</g>
	<g id="XMLID_309_" class="st2">
		<text id="XMLID_559_" transform="matrix(1 0 0 1 -70.42 114.4163)"><tspan x="0" y="0" class="st8 st9 st10">ROOM</tspan><tspan x="-3.8" y="7" class="st8 st9 st10">SERVICE</tspan></text>
	</g>
	<g id="XMLID_337_" class="st2">
		<text id="XMLID_581_" transform="matrix(1 0 0 1 104.5332 114.417)" class="st8 st9 st10">BERKFAST</text>
	</g>
	<g id="XMLID_338_" class="st2">
		<text id="XMLID_582_" transform="matrix(1 0 0 1 24.7645 114.4166)" class="st8 st9 st10">BAR</text>
	</g>
	<g id="XMLID_445_" class="st2">
		<text id="XMLID_596_" transform="matrix(1 0 0 1 17.9448 306.4039)" class="st8 st9 st10">CASINO</text>
	</g>
	<g id="XMLID_387_" class="st2">
		<text id="XMLID_597_" transform="matrix(1 0 0 1 -163.8752 210.4996)"><tspan x="0" y="0" class="st8 st9 st10">ONLINE</tspan><tspan x="-11.9" y="7" class="st8 st9 st10">RESERVATION</tspan></text>
	</g>
	<g id="XMLID_397_" class="st2">
		<text id="XMLID_598_" transform="matrix(1 0 0 1 -75.1444 210.4999)"><tspan x="0" y="0" class="st8 st9 st10">EXPRESS</tspan><tspan x="-1.9" y="7" class="st8 st9 st10">CHECK-IN</tspan></text>
	</g>
	<g id="XMLID_434_" class="st2">
		<text id="XMLID_599_" transform="matrix(1 0 0 1 14.2446 210.4996)"><tspan x="0" y="0" class="st8 st9 st10">PAYMENT</tspan><tspan x="8.8" y="7" class="st8 st9 st10">TYPE</tspan></text>
	</g>
	<g id="XMLID_464_" class="st2">
		<text id="XMLID_600_" transform="matrix(1 0 0 1 105.9851 209.6507)" class="st8 st9 st10">LUGGAGE</text>
	</g>
	<g id="XMLID_488_" class="st2">
		<text id="XMLID_601_" transform="matrix(1 0 0 1 188.5633 209.651)"><tspan x="0" y="0" class="st8 st9 st10">CONFERENCE</tspan><tspan x="13.6" y="7" class="st8 st9 st10">ROOM</tspan></text>
	</g>
	<g id="XMLID_500_" class="st2">
		<text id="XMLID_602_" transform="matrix(1 0 0 1 -169.1739 306.4039)"><tspan x="0" y="0" class="st8 st9 st10">WELLNESS</tspan><tspan x="4.8" y="7" class="st8 st9 st10">CENTER</tspan></text>
	</g>
	<g id="XMLID_509_" class="st2">
		<text id="XMLID_603_" transform="matrix(1 0 0 1 -72.2377 306.404)"><tspan x="0" y="0" class="st8 st9 st10">FAMILY</tspan><tspan x="-4.4" y="7" class="st8 st9 st10">FRIENDLY</tspan></text>
	</g>
	<g id="XMLID_519_" class="st2">
		<text id="XMLID_604_" transform="matrix(1 0 0 1 205.7396 114.4162)"><tspan x="0" y="0" class="st8 st9 st10">MAP</tspan><tspan x="-10.8" y="7" class="st8 st9 st10">LOCATION</tspan></text>
	</g>
	<g id="XMLID_511_" class="st2">
		<text id="XMLID_605_" transform="matrix(1 0 0 1 114.1085 306.4043)"><tspan x="0" y="0" class="st8 st9 st10">FREE</tspan><tspan x="-11" y="7" class="st8 st9 st10">WI-FI SPOT</tspan></text>
	</g>
	<g id="XMLID_517_" class="st2">
		<text id="XMLID_606_" transform="matrix(1 0 0 1 197.3825 306.4036)" class="st8 st9 st10">KEYLOCK</text>
	</g>
</g>
<g id="headline" class="st0">
	<circle id="XMLID_61_" class="st11" cx="-133.5" cy="-208.4" r="18.3"/>
	<circle id="XMLID_60_" class="st12" cx="-110.1" cy="-208.4" r="18.3"/>
	<circle id="XMLID_63_" class="st13" cx="-122.7" cy="-190.1" r="18.3"/>
	<g id="XMLID_1_" class="st2">
		<text id="XMLID_607_" transform="matrix(1 0 0 1 -183.7552 -194.0852)"><tspan x="0" y="0" style="fill:#231F20; font-family:'Oswald-Bold'; font-size:22.512px;">FLAT </tspan><tspan x="45.5" y="0" style="fill:#231F20; font-family:'Oswald-Light'; font-size:22.512px;">LINE </tspan><tspan x="83.9" y="0" style="fill:#231F20; font-family:'Oswald-Bold'; font-size:22.512px;">ICONS</tspan></text>
	</g>
	<g id="XMLID_2_" class="st2">
		
			<text id="XMLID_608_" transform="matrix(1 0 0 1 198.7408 -193.9056)" style="fill:#231F20; font-family:'Oswald-Light'; font-size:16.1735px;">HOTEL</text>
	</g>
</g>
</svg>
